<?xml version="1.0" encoding="UTF-8"?>
<svg id="Layer_3" data-name="Layer 3" xmlns="http://www.w3.org/2000/svg" viewBox="0 0 1927.26 1762.52">
  <defs>
    <style>
      .cls-1, .cls-2 {
        fill: #fff;
      }

      .cls-2 {
        font-family: AerosRegular, Aeros;
        font-size: 340.2px;
      }
    </style>
  </defs>
  <g>
    <path class="cls-1" d="M734.74,401.17v917.09h-172.2c-4.24-10.8-10.65-23.51-16.79-33.27-92.34-146.96-180.97-296.41-273.9-442.95-19.26-30.37-43.2-72.18-64.58-99.39-2.57-3.27.16-7.32-9.17-5.07v580.69H25.9v-762.9l174.21-150.11,358.43,576.61V401.17h176.21Z"/>
    <polygon class="cls-1" points="506.47 170.9 640.59 57.45 1190.95 463.58 1449.61 949.8 1719.91 401.17 1908.13 401.17 1449.59 1314.17 993.2 469.1 644.64 210.14 506.47 321.08 506.47 170.9"/>
    <polygon class="cls-1" points="1343.46 1318.26 802.82 1318.26 802.82 1142.05 1249.35 1142.05 1343.46 1318.26"/>
    <path class="cls-1" d="M1055.12,773.61l92.11,172.2h-342.41l-5.14-6.01c-.12-1.63,3.14-3.01,3.14-4v-162.19h252.3Z"/>
    <path class="cls-1" d="M434.39,144.87v238.28c-38.12,31.9-74.65,66.84-116.14,94.11V144.87h116.14Z"/>
    <polygon class="cls-1" points="967.02 573.38 802.82 573.38 802.82 401.17 868.9 401.17 967.02 573.38"/>
  </g>
  <text class="cls-2" transform="translate(0 1661.82)"><tspan x="0" y="0">NEVHA</tspan></text>
</svg>