<?xml version="1.0" encoding="UTF-8"?>
<svg xmlns="http://www.w3.org/2000/svg" viewBox="0 0 1910.24 1705.08">
  <defs>
    <style>
      .cls-1 {
        font-family: AerosRegular, Aeros;
        font-size: 340.2px;
      }
    </style>
  </defs>
  <g id="Layer_1" data-name="Layer 1">
    <g>
      <path d="M734.74,343.72v917.09h-172.2c-4.24-10.8-10.65-23.51-16.79-33.27-92.34-146.96-180.97-296.41-273.9-442.95-19.26-30.37-43.2-72.18-64.58-99.39-2.57-3.27.16-7.32-9.17-5.07v580.69H25.9V497.91l174.21-150.11,358.43,576.61V343.72h176.21Z"/>
      <polygon points="506.47 113.45 640.59 0 1190.95 406.13 1449.61 892.35 1719.91 343.72 1908.13 343.72 1449.59 1256.73 993.2 411.66 644.64 152.69 506.47 263.63 506.47 113.45"/>
      <polygon points="1343.46 1260.81 802.82 1260.81 802.82 1084.6 1249.35 1084.6 1343.46 1260.81"/>
      <path d="M1055.12,716.16l92.11,172.2h-342.41l-5.14-6.01c-.12-1.63,3.14-3.01,3.14-4v-162.19h252.3Z"/>
      <path d="M434.39,87.42v238.28c-38.12,31.9-74.65,66.84-116.14,94.11V87.42h116.14Z"/>
      <polygon points="967.02 515.93 802.82 515.93 802.82 343.72 868.9 343.72 967.02 515.93"/>
    </g>
  </g>
  <g id="Layer_2" data-name="Layer 2">
    <text class="cls-1" transform="translate(0 1604.37)"><tspan x="0" y="0">NEVHA</tspan></text>
  </g>
</svg>